<?xml version="1.0" encoding="UTF-8"?>
<svg width="92px" height="72px" viewBox="0 0 92 72" version="1.1" xmlns="http://www.w3.org/2000/svg" xmlns:xlink="http://www.w3.org/1999/xlink">
    <!-- Generator: Sketch 51.3 (57544) - http://www.bohemiancoding.com/sketch -->
    <title>blockchain / mining-desktop</title>
    <desc>Created with Sketch.</desc>
    <defs>
        <circle id="path-1" cx="60" cy="18" r="3"></circle>
        <circle id="path-2" cx="32" cy="18" r="3"></circle>
        <circle id="path-3" cx="46" cy="42" r="3"></circle>
        <circle id="path-4" cx="87" cy="49" r="3"></circle>
        <circle id="path-5" cx="3" cy="49" r="3"></circle>
    </defs>
    <g id="Symbols" stroke="none" stroke-width="1" fill="none" fill-rule="evenodd">
        <g id="11" transform="translate(-27.000000, -38.000000)">
            <g id="blockchain-/-mining-desktop" transform="translate(28.000000, 38.000000)">
                <rect id="Rectangle-8" stroke="#E5E5E5" stroke-linecap="round" stroke-linejoin="round" x="3" y="1" width="84" height="58" rx="2"></rect>
                <path d="M3.5,48.5 L86.5240929,48.5" id="Line" stroke="#E5E5E5" stroke-linecap="round" stroke-linejoin="round"></path>
                <path d="M36.5041781,59 C35.9925135,64.3436495 35.6811181,67.2177461 35.5699919,67.62229 C35.4033027,68.2291059 34.9204209,68.5058966 34.7176832,68.6524658 C34.5149455,68.7990349 32.1447979,70.266477 32.0069224,70.5405391 C31.8690469,70.8146012 33.8218814,70.9703761 35.0853823,70.9703761 C35.9277162,70.9703761 39.4199062,70.9703761 45.5619524,70.9703761" id="Path-53" stroke="#E5E5E5" stroke-linecap="round" stroke-linejoin="round"></path>
                <path d="M48.5041781,59 C47.9925135,64.3436495 47.6811181,67.2177461 47.5699919,67.62229 C47.4033027,68.2291059 46.9204209,68.5058966 46.7176832,68.6524658 C46.5149455,68.7990349 44.1447979,70.266477 44.0069224,70.5405391 C43.8690469,70.8146012 45.8218814,70.9703761 47.0853823,70.9703761 C47.9277162,70.9703761 51.4199062,70.9703761 57.5619524,70.9703761" id="Path-53-Copy" stroke="#E5E5E5" stroke-linecap="round" stroke-linejoin="round" transform="translate(50.780976, 64.985188) scale(-1, 1) translate(-50.780976, -64.985188) "></path>
                <path d="M8.50260314,1.01928805 L32.1380717,24.6547566" id="Path-288" stroke="#E5E5E5" stroke-linecap="round" stroke-linejoin="round"></path>
                <path d="M59.8128714,29.3134003 L86.9131666,2.21310511" id="Path-289" stroke="#E5E5E5" stroke-linecap="round" stroke-linejoin="round"></path>
                <polyline id="Path-290" stroke="#E5E5E5" stroke-linecap="round" stroke-linejoin="round" points="70.8141685 18.2666468 79.3550634 26.8075417 86.9358949 26.8075417"></polyline>
                <polyline id="Path-291" stroke="#E5E5E5" stroke-linecap="round" stroke-linejoin="round" points="79.3024872 26.7719432 79.3024872 33.7092639 86.9071423 41.313919"></polyline>
                <polyline id="Path-292" stroke="#E5E5E5" stroke-linecap="round" stroke-linejoin="round" points="22.7091318 15.3419225 12.673101 25.3779532 3.12066185 25.3779532"></polyline>
                <polyline id="Path-293" stroke="#E5E5E5" stroke-linecap="round" stroke-linejoin="round" points="12.567401 25.3669999 12.567401 34.3241231 2.98593533 43.9055887"></polyline>
                <polygon id="Polygon" stroke="#E5E5E5" stroke-linecap="round" stroke-linejoin="round" points="45.8564065 10 59.7128129 18 59.7128129 34 45.8564065 42 32 34 32 18"></polygon>
                <polyline id="Polygon-Copy" stroke="#E5E5E5" stroke-linecap="round" stroke-linejoin="round" points="59.7128129 18 45.8564065 26 32 18"></polyline>
                <polyline id="Path-294" stroke="#E5E5E5" stroke-linecap="round" stroke-linejoin="round" points="52.726963 13.8550799 58.3577806 8.2242623 58.3577806 0.974952961"></polyline>
                <polyline id="Path-295" stroke="#E5E5E5" stroke-linecap="round" stroke-linejoin="round" points="39.1802449 37.9420753 33.2711593 43.8511609 33.2711593 48.3895097"></polyline>
                <path d="M45.8758871,25.8636311 L45.8758871,41.8685583" id="Path-296" stroke="#E5E5E5" stroke-linecap="round" stroke-linejoin="round"></path>
                <g id="Oval-Copy-173" transform="translate(60.000000, 18.000000) rotate(-90.000000) translate(-60.000000, -18.000000) " stroke="#FFFFFF">
                    <circle stroke-width="1.5" stroke-linejoin="square" fill="#515151" fill-rule="evenodd" cx="60" cy="18" r="2.25"></circle>
                    <use stroke-width="1" xlink:href="#path-1"></use>
                </g>
                <g id="Oval-Copy-174" transform="translate(32.000000, 18.000000) rotate(-90.000000) translate(-32.000000, -18.000000) " stroke="#FFFFFF">
                    <circle stroke-width="1.5" stroke-linejoin="square" fill="#515151" fill-rule="evenodd" cx="32" cy="18" r="2.25"></circle>
                    <use stroke-width="1" xlink:href="#path-2"></use>
                </g>
                <g id="Oval-Copy-175" transform="translate(46.000000, 42.000000) rotate(-90.000000) translate(-46.000000, -42.000000) " stroke="#FFFFFF">
                    <circle stroke-width="1.5" stroke-linejoin="square" fill="#515151" fill-rule="evenodd" cx="46" cy="42" r="2.25"></circle>
                    <use stroke-width="1" xlink:href="#path-3"></use>
                </g>
                <g id="Oval-Copy-176" transform="translate(87.000000, 49.000000) rotate(-90.000000) translate(-87.000000, -49.000000) " stroke="#FFFFFF">
                    <circle stroke-width="1.5" stroke-linejoin="square" fill="#515151" fill-rule="evenodd" cx="87" cy="49" r="2.25"></circle>
                    <use stroke-width="1" xlink:href="#path-4"></use>
                </g>
                <g id="Oval-Copy-178" transform="translate(3.000000, 49.000000) rotate(-90.000000) translate(-3.000000, -49.000000) " stroke="#FFFFFF">
                    <circle stroke-width="1.5" stroke-linejoin="square" fill="#515151" fill-rule="evenodd" cx="3" cy="49" r="2.25"></circle>
                    <use stroke-width="1" xlink:href="#path-5"></use>
                </g>
            </g>
        </g>
    </g>
</svg>